<svg id="svg" version="1.1" xmlns="http://www.w3.org/2000/svg" xmlns:xlink="http://www.w3.org/1999/xlink" width="400" height="398.2222222222222" viewBox="0, 0, 400,398.2222222222222"><g id="svgg"><path id="path0" d="M83.111 68.716 C 69.494 74.251,63.739 78.222,69.333 78.222 C 74.370 78.222,69.559 82.484,56.000 90.034 C 37.457 100.359,37.454 100.196,56.494 111.111 L 72.000 120.000 122.543 120.889 L 173.085 121.778 186.098 146.614 C 193.255 160.274,199.111 171.568,199.111 171.712 C 199.111 171.856,176.911 179.809,149.778 189.385 C 93.165 209.364,97.097 207.290,93.191 219.248 C 91.539 224.306,89.915 228.757,89.583 229.140 C 89.251 229.523,85.453 226.946,81.143 223.414 L 73.306 216.993 59.320 221.616 C 51.627 224.159,44.791 226.736,44.127 227.342 C 43.464 227.948,55.569 252.444,71.027 281.778 L 99.133 335.111 175.789 335.574 C 217.949 335.829,252.444 335.499,252.444 334.841 C 252.444 334.182,247.175 323.684,240.734 311.510 C 234.294 299.336,229.694 288.805,230.512 288.108 C 235.482 283.871,250.933 273.461,251.437 274.009 C 251.768 274.371,259.201 288.267,267.954 304.889 L 283.869 335.111 309.045 335.604 C 322.893 335.876,334.222 335.831,334.222 335.505 C 334.222 335.178,323.786 315.054,311.030 290.783 L 287.837 246.655 292.962 225.105 L 298.086 203.556 284.122 176.678 L 270.157 149.801 289.745 121.333 C 312.181 88.725,311.025 92.388,303.618 77.367 L 297.904 65.778 257.537 65.778 L 217.170 65.778 202.449 71.986 L 187.728 78.195 144.526 70.209 C 93.632 60.800,102.078 61.006,83.111 68.716 " stroke="none" fill="#ebebeb" fill-rule="evenodd"></path></g></svg>
